<?xml version="1.0" encoding="UTF-8" standalone="no"?>
<!-- Created with Inkscape (http://www.inkscape.org/) -->

<svg
   width="200mm"
   height="200mm"
   viewBox="0 0 200 200"
   version="1.1"
   id="svg5"
   xml:space="preserve"
   inkscape:version="1.2.2 (b0a8486541, 2022-12-01)"
   sodipodi:docname="advert.svg"
   xmlns:inkscape="http://www.inkscape.org/namespaces/inkscape"
   xmlns:sodipodi="http://sodipodi.sourceforge.net/DTD/sodipodi-0.dtd"
   xmlns:xlink="http://www.w3.org/1999/xlink"
   xmlns="http://www.w3.org/2000/svg"
   xmlns:svg="http://www.w3.org/2000/svg"><sodipodi:namedview
     id="namedview7"
     pagecolor="#ffffff"
     bordercolor="#000000"
     borderopacity="0.25"
     inkscape:showpageshadow="2"
     inkscape:pageopacity="0.0"
     inkscape:pagecheckerboard="0"
     inkscape:deskcolor="#d1d1d1"
     inkscape:document-units="mm"
     showgrid="false"
     showguides="true"
     inkscape:zoom="1"
     inkscape:cx="152.5"
     inkscape:cy="430.5"
     inkscape:window-width="1920"
     inkscape:window-height="988"
     inkscape:window-x="1920"
     inkscape:window-y="0"
     inkscape:window-maximized="1"
     inkscape:current-layer="layer1" /><defs
     id="defs2"><inkscape:path-effect
       effect="spiro"
       id="path-effect7057"
       is_visible="true"
       lpeversion="1" /><inkscape:path-effect
       effect="spiro"
       id="path-effect3666"
       is_visible="true"
       lpeversion="1" /><inkscape:path-effect
       effect="spiro"
       id="path-effect2058"
       is_visible="true"
       lpeversion="1" /><inkscape:path-effect
       effect="spiro"
       id="path-effect2052"
       is_visible="true"
       lpeversion="1" /><inkscape:path-effect
       effect="spiro"
       id="path-effect2046"
       is_visible="true"
       lpeversion="1" /><linearGradient
       inkscape:collect="always"
       id="linearGradient1920"><stop
         style="stop-color:#3064d0;stop-opacity:1;"
         offset="0"
         id="stop1916" /><stop
         style="stop-color:#3064d0;stop-opacity:0;"
         offset="1"
         id="stop1918" /></linearGradient><linearGradient
       inkscape:collect="always"
       id="linearGradient1887"><stop
         style="stop-color:#5e84e9;stop-opacity:1;"
         offset="0"
         id="stop1883" /><stop
         style="stop-color:#e65ee9;stop-opacity:1;"
         offset="1"
         id="stop1885" /></linearGradient><linearGradient
       inkscape:collect="always"
       xlink:href="#linearGradient1887"
       id="linearGradient1889"
       x1="117.90286"
       y1="193.20158"
       x2="190.47495"
       y2="117.90286"
       gradientUnits="userSpaceOnUse"
       gradientTransform="matrix(2.367757,0,0,2.367757,-265.08185,-265.08185)" /><linearGradient
       inkscape:collect="always"
       xlink:href="#linearGradient1920"
       id="linearGradient1922"
       x1="100"
       y1="199.99998"
       x2="100"
       y2="117.90285"
       gradientUnits="userSpaceOnUse" /><filter
       inkscape:collect="always"
       style="color-interpolation-filters:sRGB"
       id="filter4938"
       x="-0.20750582"
       y="-0.16365738"
       width="1.4150116"
       height="1.3273148"><feGaussianBlur
         inkscape:collect="always"
         stdDeviation="1.4031254"
         id="feGaussianBlur4940" /></filter></defs><g
     inkscape:label="Layer 1"
     inkscape:groupmode="layer"
     id="layer1"><rect
       style="opacity:1;fill:#ffffff;stroke:none;stroke-width:4;stroke-linecap:square;paint-order:stroke markers fill;fill-opacity:1"
       id="rect436"
       width="200"
       height="200"
       x="0"
       y="0" /><rect
       style="fill:url(#linearGradient1922);fill-opacity:1;stroke-width:0.775999;stroke-linecap:round;paint-order:fill markers stroke;opacity:0.29988121"
       id="rect1914"
       width="200"
       height="82.097137"
       x="0"
       y="117.90285" /><path
       id="path3036"
       style="fill:url(#linearGradient1889);fill-opacity:1;stroke:none;stroke-width:1.042;stroke-linecap:round;stroke-dasharray:none;paint-order:fill markers stroke;opacity:0.34012277"
       d="m 99.999744,14.083475 c -47.425377,0 -85.916274,38.490897 -85.916274,85.916262 0,47.425393 38.490897,85.916793 85.916274,85.916793 47.425366,0 85.916786,-38.4914 85.916786,-85.916793 0,-47.425365 -38.49142,-85.916262 -85.916786,-85.916262 z m 0,4.214394 c 45.147606,0 81.701866,36.554238 81.701866,81.701868 0,45.147633 -36.55426,81.701853 -81.701866,81.701853 -45.147618,0 -81.70188,-36.55422 -81.70188,-81.701853 0,-45.14763 36.554262,-81.701868 81.70188,-81.701868 z M 93.08793,47.22085 v 5.210817 H 59.479031 a 6.709132,6.709132 0 0 0 -6.474584,-4.954366 6.709132,6.709132 0 0 0 -6.709253,6.709253 6.709132,6.709132 0 0 0 6.709253,6.709276 6.709132,6.709132 0 0 0 6.470227,-4.9533 H 81.627418 C 65.585216,62.433807 53.745412,77.164286 51.3688,94.874964 a 6.709132,6.709132 0 0 0 -5.394295,6.574766 6.709132,6.709132 0 0 0 6.708708,6.70925 6.709132,6.709132 0 0 0 6.709252,-6.70925 6.709132,6.709132 0 0 0 -4.513868,-6.340095 C 57.645274,75.19578 73.254106,59.420459 93.08793,56.408649 v 4.63635 h 13.82417 v -4.63635 c 19.83567,3.012045 35.44646,18.789738 38.2115,38.705887 a 6.709132,6.709132 0 0 0 -4.51441,6.335194 6.709132,6.709132 0 0 0 6.70925,6.70925 6.709132,6.709132 0 0 0 6.70871,-6.70925 6.709132,6.709132 0 0 0 -5.39539,-6.579144 C 146.25359,77.161921 134.41388,62.433265 118.37261,55.942532 h 22.15326 a 6.709132,6.709132 0 0 0 6.47022,4.953301 6.709132,6.709132 0 0 0 6.70928,-6.709277 6.709132,6.709132 0 0 0 -6.70928,-6.709252 6.709132,6.709132 0 0 0 -6.47077,4.954366 H 106.9121 v -5.210818 z m 4.950554,17.012168 a 0.34220628,0.34220628 0 0 0 -0.289695,0.206942 h 8.28e-4 l -20.820918,48.88249 a 4.6769655,4.6769655 0 0 0 -0.184685,3.15098 l 5.196635,17.68573 a 2.2401883,2.2401883 0 0 0 2.149118,1.60896 h 14.233084 17.586609 a 2.2401883,2.2401883 0 0 0 2.14911,-1.60896 l 5.19666,-17.68573 a 4.6769662,4.6769662 0 0 0 -0.18468,-3.15098 l -20.8209,-48.88249 a 0.34220621,0.34220621 0 0 0 -0.65665,0.134488 v 49.773832 c 0,0.926 0.74708,1.83984 1.55998,2.27818 1.62575,0.87671 2.8172,2.39859 3.27839,4.18717 0.23062,0.89432 0.23086,2.42366 5.5e-4,3.31815 -0.60047,2.33513 -2.43898,4.17367 -4.77413,4.77411 -0.89445,0.2299 -2.423707,0.22943 -3.318151,-5.5e-4 -2.334964,-0.60056 -4.173172,-2.43858 -4.773588,-4.77356 -0.229909,-0.89449 -0.228962,-2.42397 8.29e-4,-3.31815 0.461784,-1.78728 1.652552,-3.30771 3.277307,-4.1839 0.812922,-0.43837 1.560541,-1.35218 1.560541,-2.27816 V 64.574448 A 0.34220628,0.34220628 0 0 0 98.038271,64.233065 Z M 80.664759,138.50418 c -1.747097,0 -3.15371,1.40605 -3.15371,3.15314 0,1.74712 1.406613,3.15374 3.15371,3.15374 h 38.670511 c 1.7471,0 3.15371,-1.40662 3.15371,-3.15374 0,-1.74709 -1.40661,-3.15314 -3.15371,-3.15314 z m 2.579269,9.04351 c -2.226899,0 -4.019457,1.79253 -4.019457,4.01943 v 5.26419 c 0,2.2269 1.792558,4.01945 4.019457,4.01945 H 116.756 c 2.22688,0 4.01946,-1.79255 4.01946,-4.01945 v -5.26419 c 0,-2.2269 -1.79258,-4.01943 -4.01946,-4.01943 z" /><text
       xml:space="preserve"
       style="font-weight:600;font-size:24.4836px;font-family:FreeSans;-inkscape-font-specification:'FreeSans Semi-Bold';text-align:start;text-anchor:start;white-space:pre;inline-size:202.85;display:inline;fill:#000000;fill-opacity:1;stroke-width:0.775995;stroke-linecap:round;paint-order:fill markers stroke"
       x="122.95015"
       y="30.601669"
       id="text388"
       transform="translate(-112.4123,-0.48264694)"><tspan
         x="122.95015"
         y="30.601669"
         id="tspan7214"><tspan
           style="stroke-width:0.776002"
           id="tspan7212">I DO VECTOR </tspan></tspan><tspan
         x="122.95015"
         y="61.206168"
         id="tspan7218"><tspan
           style="stroke-width:0.776002"
           id="tspan7216">GRAPHIC </tspan></tspan><tspan
         x="122.95015"
         y="91.810668"
         id="tspan7222"><tspan
           style="stroke-width:0.776002"
           id="tspan7220">TRACING</tspan></tspan></text><text
       xml:space="preserve"
       style="font-weight:600;font-size:8.2282px;font-family:FreeSans;-inkscape-font-specification:'FreeSans Semi-Bold';text-align:start;text-anchor:start;fill:#525252;fill-opacity:1;stroke-width:0.775997;stroke-linecap:round;paint-order:fill markers stroke"
       x="10.548896"
       y="120.5667"
       id="text442"><tspan
         sodipodi:role="line"
         id="tspan440"
         style="text-align:start;text-anchor:start;fill:#525252;fill-opacity:1;stroke-width:0.776005"
         x="10.548896"
         y="120.5667">Visit My Personal Website To Get Your Quote</tspan></text><rect
       style="fill:#ab37c8;fill-opacity:1;stroke-width:0.775999;stroke-linecap:round;paint-order:fill markers stroke"
       id="rect1152"
       width="75.352272"
       height="21.208788"
       x="10.365832"
       y="146.06271"
       ry="3.2419472" /><text
       xml:space="preserve"
       style="font-weight:600;font-size:8.82704px;font-family:FreeSans;-inkscape-font-specification:'FreeSans Semi-Bold';text-align:center;text-anchor:middle;fill:#ffffff;fill-opacity:1;stroke-width:0.775997;stroke-linecap:round;paint-order:fill markers stroke"
       x="47.865429"
       y="159.78305"
       id="text1364"><tspan
         sodipodi:role="line"
         id="tspan1362"
         style="fill:#ffffff;fill-opacity:1;stroke-width:0.776005"
         x="47.865429"
         y="159.78305">Learn More</tspan></text><path
       style="opacity:1;fill:#2a7fff;fill-opacity:1;stroke:#2a7fff;stroke-width:0.2;stroke-linecap:square;stroke-dasharray:none;paint-order:fill markers stroke"
       d="M 0.10014355,30.11902 H 199.89972"
       id="path2044"
       inkscape:path-effect="#path-effect2046"
       inkscape:original-d="m 0.10014355,30.11902 c 66.60012345,2.63e-4 199.79957645,0 199.79957645,0" /><path
       style="opacity:1;fill:#ff0000;fill-opacity:1;stroke:#2a7fff;stroke-width:0.2;stroke-linecap:square;stroke-dasharray:none;paint-order:fill markers stroke"
       d="M 0.1004255,91.891139 H 199.9"
       id="path2048"
       inkscape:path-effect="#path-effect2052"
       inkscape:original-d="m 0.1004255,91.891139 c 66.6001235,2.63e-4 199.7995745,0 199.7995745,0" /><path
       style="opacity:1;fill:#2a7fff;fill-opacity:1;stroke:#ff0000;stroke-width:0.2;stroke-linecap:square;stroke-dasharray:none;paint-order:fill markers stroke"
       d="M 10.365832,199.9 V 0.1004242"
       id="path2054"
       inkscape:path-effect="#path-effect2058"
       inkscape:original-d="m 10.365832,199.9 c 2.7e-4,-66.60013 0,-199.7995758 0,-199.7995758" /><text
       xml:space="preserve"
       style="font-weight:600;font-size:8.2282px;font-family:FreeSans;-inkscape-font-specification:'FreeSans Semi-Bold';text-align:start;text-anchor:start;fill:#525252;fill-opacity:1;stroke-width:0.775997;stroke-linecap:round;paint-order:fill markers stroke"
       x="171.3887"
       y="149.66315"
       id="text3188"><tspan
         sodipodi:role="line"
         id="tspan3186"
         style="text-align:start;text-anchor:start;fill:#525252;fill-opacity:1;stroke-width:0.776005"
         x="171.3887"
         y="149.66315">SVG</tspan><tspan
         sodipodi:role="line"
         style="text-align:start;text-anchor:start;fill:#525252;fill-opacity:1;stroke-width:0.776005"
         x="171.3887"
         y="159.94839"
         id="tspan3190">PDF</tspan><tspan
         sodipodi:role="line"
         style="text-align:start;text-anchor:start;fill:#525252;fill-opacity:1;stroke-width:0.776005"
         x="171.3887"
         y="170.23364"
         id="tspan3192">EPS</tspan><tspan
         sodipodi:role="line"
         style="text-align:start;text-anchor:start;fill:#525252;fill-opacity:1;stroke-width:0.776005"
         x="171.3887"
         y="180.51889"
         id="tspan3194">PNG</tspan><tspan
         sodipodi:role="line"
         style="text-align:start;text-anchor:start;fill:#525252;fill-opacity:1;stroke-width:0.776005"
         x="171.3887"
         y="190.80415"
         id="tspan3196">JPG</tspan></text><rect
       style="fill:none;fill-opacity:1;stroke:#000000;stroke-width:0.8;stroke-linecap:round;stroke-dasharray:1.6,1.6;stroke-dashoffset:0;paint-order:fill markers stroke"
       id="rect3198"
       width="75.352272"
       height="21.208788"
       x="10.365832"
       y="146.06271" /><path
       id="path3252"
       style="opacity:1;fill:#000000;fill-opacity:1;stroke:none;stroke-width:0.2;stroke-linecap:square;stroke-dasharray:0.4, 0.4;stroke-dashoffset:0;paint-order:fill markers stroke"
       inkscape:transform-center-y="-0.32526346"
       d="m 48.041967,138.18951 -1.737515,1.95163 h 1.103775 v 1.95391 h -1.103775 l 1.737515,1.95163 1.737516,-1.95163 h -1.103776 v -1.95391 h 1.103776 z" /><path
       id="path3261"
       style="opacity:1;fill:#000000;fill-opacity:1;stroke:none;stroke-width:0.2;stroke-linecap:square;stroke-dasharray:0.4, 0.4;stroke-dashoffset:0;paint-order:fill markers stroke"
       inkscape:transform-center-y="-0.32526346"
       d="m 48.041967,169.28753 -1.737515,1.95163 h 1.103775 v 1.95391 h -1.103775 l 1.737515,1.95163 1.737516,-1.95163 h -1.103776 v -1.95391 h 1.103776 z" /><path
       id="path3265"
       style="opacity:1;fill:#000000;fill-opacity:1;stroke:none;stroke-width:0.2;stroke-linecap:square;stroke-dasharray:0.4, 0.4;stroke-dashoffset:0;paint-order:fill markers stroke"
       inkscape:transform-center-y="-3.46e-06"
       d="m 87.734148,156.66711 1.95163,1.73751 v -1.10377 h 1.95391 v 1.10377 l 1.95163,-1.73751 -1.95163,-1.73752 v 1.10378 h -1.95391 v -1.10378 z"
       inkscape:transform-center-x="0.3252635" /><path
       id="path3269"
       style="opacity:1;fill:#000000;fill-opacity:1;stroke:none;stroke-width:0.2;stroke-linecap:square;stroke-dasharray:0.4, 0.4;stroke-dashoffset:0;paint-order:fill markers stroke"
       inkscape:transform-center-y="-3.46e-06"
       d="m 8.4497863,156.66711 -1.95163,1.73751 v -1.10377 h -1.95391 v 1.10377 l -1.95163,-1.73751 1.95163,-1.73752 v 1.10378 h 1.95391 v -1.10378 z"
       inkscape:transform-center-x="-0.3252635" /><path
       id="path3273"
       style="opacity:1;fill:#000000;fill-opacity:1;stroke:none;stroke-width:0.2;stroke-linecap:square;stroke-dasharray:0.4, 0.4;stroke-dashoffset:0;paint-order:fill markers stroke"
       inkscape:transform-center-y="-1.480345"
       d="m 9.0402678,144.63716 -2.6086159,-0.15141 0.7804833,-0.78048 -1.381623,-1.38162 -0.7804833,0.78048 -0.1514057,-2.60862 2.608623,0.1514 -0.7804903,0.78049 1.381623,1.38163 0.7804903,-0.78049 z"
       inkscape:transform-center-x="41.072522" /><path
       id="path3277"
       style="opacity:1;fill:#000000;fill-opacity:1;stroke:none;stroke-width:0.2;stroke-linecap:square;stroke-dasharray:0.4, 0.4;stroke-dashoffset:0;paint-order:fill markers stroke"
       inkscape:transform-center-y="26.721205"
       d="m 9.0402678,168.69706 -2.6086159,0.15141 0.7804833,0.78048 -1.381623,1.38162 -0.7804833,-0.78048 -0.1514057,2.60862 2.608623,-0.1514 -0.7804903,-0.78049 1.381623,-1.38163 0.7804903,0.78049 z"
       inkscape:transform-center-x="41.072522" /><path
       id="path3285"
       style="opacity:1;fill:#0000ff;fill-opacity:1;stroke:none;stroke-width:0.2;stroke-linecap:square;stroke-dasharray:0.4, 0.4;stroke-dashoffset:0;paint-order:fill markers stroke"
       inkscape:transform-center-y="26.721205"
       d="m 87.043667,168.69706 2.608616,0.15141 -0.780483,0.78048 1.381623,1.38162 0.780483,-0.78048 0.151406,2.60862 -2.608623,-0.1514 0.78049,-0.78049 -1.381623,-1.38163 -0.78049,0.78049 z"
       inkscape:transform-center-x="-41.072522" /><path
       id="path3287"
       style="opacity:1;fill:#000000;fill-opacity:1;stroke:none;stroke-width:0.2;stroke-linecap:square;stroke-dasharray:0.4, 0.4;stroke-dashoffset:0;paint-order:fill markers stroke"
       inkscape:transform-center-y="-1.480345"
       d="m 87.043667,144.63716 2.608616,-0.15141 -0.780483,-0.78048 1.381623,-1.38162 0.780483,0.78048 0.151406,-2.60862 -2.608623,0.1514 0.78049,0.78049 -1.381623,1.38163 -0.78049,-0.78049 z"
       inkscape:transform-center-x="-41.072522" /><path
       id="path4931"
       style="color:#000000;fill:#000000;stroke-linecap:square;-inkscape-stroke:none;paint-order:stroke markers fill;filter:url(#filter4938);opacity:0.47521786"
       d="m 91.184935,172.4058 0.293,2.91611 1.77716,17.64078 4.40438,-4.45296 2.509915,4.4726 3.84783,-2.28927 -2.51561,-4.4881 5.91179,-1.69137 z" /><path
       id="path4652"
       style="opacity:1;stroke:#ffffff;stroke-width:2.5808;stroke-linecap:square;stroke-dasharray:none;paint-order:stroke markers fill"
       inkscape:transform-center-y="-1.2871998"
       d="m 92.762852,175.19323 1.501696,14.91452 3.68407,-3.72563 2.698612,4.81407 1.62974,-0.9691 -2.698602,-4.81408 4.974552,-1.42309 z"
       inkscape:transform-center-x="-0.6880874" /><circle
       style="opacity:1;fill:#2a7fff;fill-opacity:1;stroke:none;stroke-width:5.90103;stroke-linecap:square;paint-order:stroke markers fill"
       id="path6242"
       cx="178.53102"
       cy="30.11902"
       r="0.70585465" /><circle
       style="opacity:1;fill:#ff0000;fill-opacity:1;stroke:none;stroke-width:5.90103;stroke-linecap:square;paint-order:stroke markers fill"
       id="circle6657"
       cx="10.365832"
       cy="66.81514"
       r="0.70585465" /><circle
       style="opacity:1;fill:#2a7fff;fill-opacity:1;stroke:none;stroke-width:5.90103;stroke-linecap:square;paint-order:stroke markers fill"
       id="circle6931"
       cx="132.45265"
       cy="91.891136"
       r="0.70585465" /></g></svg>
